<!DOCTYPE svg PUBLIC "-//W3C//DTD SVG 20010904//EN" "http://www.w3.org/TR/2001/REC-SVG-20010904/DTD/svg10.dtd">
<svg version="1.0" xmlns="http://www.w3.org/2000/svg" width="432px" height="248px" viewBox="0 0 4320 2480">
    <g fill="#7F7F7F" stroke="none">
        <path d="M1980 2469 c-699 -28 -1346 -265 -1701 -622 -152 -153 -238 -312 -273 -504 l-5 -33 609 0 c503 0 610 2 610 13 0 32 65 140 115 191 182 185 477 287 830 287 353 0 648 -102 830 -287 50 -51 115 -159 115 -191 0 -11 106 -13 606 -13 l606 0 -7 43 c-59 388 -449 743 -1041 945 -393 135 -809 190 -1294 171z"/>
        <path d="M1920 1645 c-240 -45 -428 -155 -495 -288 -35 -71 -35 -163 1 -235 56 -113 211 -214 409 -269 95 -26 111 -27 325 -27 214 0 230 1 325 27 198 55 353 156 409 269 36 72 36 164 0 236 -56 113 -212 215 -409 268 -89 24 -121 27 -295 30 -139 2 -217 -1 -270 -11z"/>
        <path d="M11 1113 c35 -196 161 -397 344 -553 203 -172 477 -315 787 -410 567 -175 1299 -191 1883 -44 723 183 1216 571 1290 1017 l6 37 -601 0 c-563 0 -601 -1 -606 -17 -76 -235 -341 -409 -712 -469 -119 -19 -355 -19 -474 0 -371 60 -636 234 -712 469 -5 16 -43 17 -609 17 l-604 0 8 -47z"/>
    </g>
</svg>